<svg xmlns="http://www.w3.org/2000/svg" width="1400" height="900" viewBox="0 0 1400 900">
<rect width="100%" height="100%" fill="#fbfaf7"/>
<style>text{font-family:'Microsoft YaHei','Segoe UI',Arial,sans-serif;fill:#25211e}.title{font-size:34px;font-weight:700}.sub{font-size:18px;fill:#6d645c}.label{font-size:18px;font-weight:650}.small{font-size:15px;fill:#6d645c}.tick{font-size:14px;fill:#6d645c}.rank{font-size:16px;font-weight:700;fill:#c84632}.mono{font-family:Consolas,'Microsoft YaHei',monospace;font-size:16px;fill:#3a332e}</style>
<text x="92" y="50" class="title" text-anchor="start" >Taiko Rating &#20998;&#25968;&#34917;&#27491;&#26354;&#32447;</text>
<text x="92" y="82" class="sub" text-anchor="start" >&#21333;&#26354; TR = &#35889;&#38754;&#23450;&#25968; + G(&#23448;&#26041;&#20998;&#25968;)</text>
<text x="92" y="108" class="small" text-anchor="start" >&#36825;&#26159;&#19968;&#26465;&#31867;&#20284; CHUNITHM &#30340;&#36830;&#32493;&#20998;&#27573;&#30452;&#32447;&#65306;80&#19975;/&#37329;&#38597;&#20316;&#20026;&#23450;&#25968;&#22522;&#20934;&#65292;100&#19975;/&#26497;&#21518;&#23553;&#39030;&#12290;</text>
<line x1="92.00" y1="567.87" x2="942.00" y2="567.87" stroke="#ded7cc" stroke-width="1" />
<text x="78" y="572.8717948717949" class="tick" text-anchor="end" >-2</text>
<line x1="92.00" y1="447.36" x2="942.00" y2="447.36" stroke="#ded7cc" stroke-width="1" />
<text x="78" y="452.35897435897436" class="tick" text-anchor="end" >-1</text>
<line x1="92.00" y1="326.85" x2="942.00" y2="326.85" stroke="#ded7cc" stroke-width="1" />
<text x="78" y="331.8461538461538" class="tick" text-anchor="end" >+0</text>
<line x1="92.00" y1="266.59" x2="942.00" y2="266.59" stroke="#ded7cc" stroke-width="1" />
<text x="78" y="271.5897435897436" class="tick" text-anchor="end" >+0.5</text>
<line x1="92.00" y1="206.33" x2="942.00" y2="206.33" stroke="#ded7cc" stroke-width="1" />
<text x="78" y="211.33333333333331" class="tick" text-anchor="end" >+1</text>
<line x1="92.00" y1="170.18" x2="942.00" y2="170.18" stroke="#ded7cc" stroke-width="1" />
<text x="78" y="175.17948717948718" class="tick" text-anchor="end" >+1.3</text>
<line x1="92.00" y1="146.08" x2="942.00" y2="146.08" stroke="#ded7cc" stroke-width="1" />
<text x="78" y="151.07692307692304" class="tick" text-anchor="end" >+1.5</text>
<line x1="92.00" y1="128.00" x2="92.00" y2="598.00" stroke="#c7b9a8" stroke-width="1" />
<text x="92.0" y="626" class="tick" text-anchor="middle" >70w</text>
<line x1="233.67" y1="128.00" x2="233.67" y2="598.00" stroke="#c7b9a8" stroke-width="1" />
<text x="233.66666666666666" y="626" class="tick" text-anchor="middle" >75w</text>
<line x1="375.33" y1="128.00" x2="375.33" y2="598.00" stroke="#c7b9a8" stroke-width="1" />
<text x="375.3333333333333" y="626" class="tick" text-anchor="middle" >80w</text>
<line x1="658.67" y1="128.00" x2="658.67" y2="598.00" stroke="#c7b9a8" stroke-width="1" />
<text x="658.6666666666666" y="626" class="tick" text-anchor="middle" >90w</text>
<line x1="800.33" y1="128.00" x2="800.33" y2="598.00" stroke="#c7b9a8" stroke-width="1" />
<text x="800.3333333333334" y="626" class="tick" text-anchor="middle" >95w</text>
<line x1="885.33" y1="128.00" x2="885.33" y2="598.00" stroke="#c7b9a8" stroke-width="1" />
<text x="885.3333333333334" y="626" class="tick" text-anchor="middle" >98w</text>
<line x1="942.00" y1="128.00" x2="942.00" y2="598.00" stroke="#c7b9a8" stroke-width="1" />
<text x="942.0" y="626" class="tick" text-anchor="middle" >100w</text>
<line x1="92.00" y1="598.00" x2="942.00" y2="598.00" stroke="#302b27" stroke-width="2" />
<line x1="92.00" y1="128.00" x2="92.00" y2="598.00" stroke="#302b27" stroke-width="2" />
<rect x="375.33" y="128.00" width="566.67" height="470.00" fill="#f0f6f8" opacity="0.8"/>
<polyline points="92.00,567.87 93.42,566.67 94.83,565.46 96.25,564.26 97.67,563.05 99.08,561.85 100.50,560.64 101.92,559.44 103.33,558.23 104.75,557.03 106.17,555.82 107.58,554.62 109.00,553.41 110.42,552.21 111.83,551.00 113.25,549.79 114.67,548.59 116.08,547.38 117.50,546.18 118.92,544.97 120.33,543.77 121.75,542.56 123.17,541.36 124.58,540.15 126.00,538.95 127.42,537.74 128.83,536.54 130.25,535.33 131.67,534.13 133.08,532.92 134.50,531.72 135.92,530.51 137.33,529.31 138.75,528.10 140.17,526.90 141.58,525.69 143.00,524.49 144.42,523.28 145.83,522.08 147.25,520.87 148.67,519.67 150.08,518.46 151.50,517.26 152.92,516.05 154.33,514.85 155.75,513.64 157.17,512.44 158.58,511.23 160.00,510.03 161.42,508.82 162.83,507.62 164.25,506.41 165.67,505.21 167.08,504.00 168.50,502.79 169.92,501.59 171.33,500.38 172.75,499.18 174.17,497.97 175.58,496.77 177.00,495.56 178.42,494.36 179.83,493.15 181.25,491.95 182.67,490.74 184.08,489.54 185.50,488.33 186.92,487.13 188.33,485.92 189.75,484.72 191.17,483.51 192.58,482.31 194.00,481.10 195.42,479.90 196.83,478.69 198.25,477.49 199.67,476.28 201.08,475.08 202.50,473.87 203.92,472.67 205.33,471.46 206.75,470.26 208.17,469.05 209.58,467.85 211.00,466.64 212.42,465.44 213.83,464.23 215.25,463.03 216.67,461.82 218.08,460.62 219.50,459.41 220.92,458.21 222.33,457.00 223.75,455.79 225.17,454.59 226.58,453.38 228.00,452.18 229.42,450.97 230.83,449.77 232.25,448.56 233.67,447.36 235.08,446.15 236.50,444.95 237.92,443.74 239.33,442.54 240.75,441.33 242.17,440.13 243.58,438.92 245.00,437.72 246.42,436.51 247.83,435.31 249.25,434.10 250.67,432.90 252.08,431.69 253.50,430.49 254.92,429.28 256.33,428.08 257.75,426.87 259.17,425.67 260.58,424.46 262.00,423.26 263.42,422.05 264.83,420.85 266.25,419.64 267.67,418.44 269.08,417.23 270.50,416.03 271.92,414.82 273.33,413.62 274.75,412.41 276.17,411.21 277.58,410.00 279.00,408.79 280.42,407.59 281.83,406.38 283.25,405.18 284.67,403.97 286.08,402.77 287.50,401.56 288.92,400.36 290.33,399.15 291.75,397.95 293.17,396.74 294.58,395.54 296.00,394.33 297.42,393.13 298.83,391.92 300.25,390.72 301.67,389.51 303.08,388.31 304.50,387.10 305.92,385.90 307.33,384.69 308.75,383.49 310.17,382.28 311.58,381.08 313.00,379.87 314.42,378.67 315.83,377.46 317.25,376.26 318.67,375.05 320.08,373.85 321.50,372.64 322.92,371.44 324.33,370.23 325.75,369.03 327.17,367.82 328.58,366.62 330.00,365.41 331.42,364.21 332.83,363.00 334.25,361.79 335.67,360.59 337.08,359.38 338.50,358.18 339.92,356.97 341.33,355.77 342.75,354.56 344.17,353.36 345.58,352.15 347.00,350.95 348.42,349.74 349.83,348.54 351.25,347.33 352.67,346.13 354.08,344.92 355.50,343.72 356.92,342.51 358.33,341.31 359.75,340.10 361.17,338.90 362.58,337.69 364.00,336.49 365.42,335.28 366.83,334.08 368.25,332.87 369.67,331.67 371.08,330.46 372.50,329.26 373.92,328.05 375.33,326.85 376.75,326.54 378.17,326.24 379.58,325.94 381.00,325.64 382.42,325.34 383.83,325.04 385.25,324.74 386.67,324.44 388.08,324.13 389.50,323.83 390.92,323.53 392.33,323.23 393.75,322.93 395.17,322.63 396.58,322.33 398.00,322.03 399.42,321.72 400.83,321.42 402.25,321.12 403.67,320.82 405.08,320.52 406.50,320.22 407.92,319.92 409.33,319.62 410.75,319.31 412.17,319.01 413.58,318.71 415.00,318.41 416.42,318.11 417.83,317.81 419.25,317.51 420.67,317.21 422.08,316.90 423.50,316.60 424.92,316.30 426.33,316.00 427.75,315.70 429.17,315.40 430.58,315.10 432.00,314.79 433.42,314.49 434.83,314.19 436.25,313.89 437.67,313.59 439.08,313.29 440.50,312.99 441.92,312.69 443.33,312.38 444.75,312.08 446.17,311.78 447.58,311.48 449.00,311.18 450.42,310.88 451.83,310.58 453.25,310.28 454.67,309.97 456.08,309.67 457.50,309.37 458.92,309.07 460.33,308.77 461.75,308.47 463.17,308.17 464.58,307.87 466.00,307.56 467.42,307.26 468.83,306.96 470.25,306.66 471.67,306.36 473.08,306.06 474.50,305.76 475.92,305.46 477.33,305.15 478.75,304.85 480.17,304.55 481.58,304.25 483.00,303.95 484.42,303.65 485.83,303.35 487.25,303.04 488.67,302.74 490.08,302.44 491.50,302.14 492.92,301.84 494.33,301.54 495.75,301.24 497.17,300.94 498.58,300.63 500.00,300.33 501.42,300.03 502.83,299.73 504.25,299.43 505.67,299.13 507.08,298.83 508.50,298.53 509.92,298.22 511.33,297.92 512.75,297.62 514.17,297.32 515.58,297.02 517.00,296.72 518.42,296.42 519.83,296.12 521.25,295.81 522.67,295.51 524.08,295.21 525.50,294.91 526.92,294.61 528.33,294.31 529.75,294.01 531.17,293.71 532.58,293.40 534.00,293.10 535.42,292.80 536.83,292.50 538.25,292.20 539.67,291.90 541.08,291.60 542.50,291.29 543.92,290.99 545.33,290.69 546.75,290.39 548.17,290.09 549.58,289.79 551.00,289.49 552.42,289.19 553.83,288.88 555.25,288.58 556.67,288.28 558.08,287.98 559.50,287.68 560.92,287.38 562.33,287.08 563.75,286.78 565.17,286.47 566.58,286.17 568.00,285.87 569.42,285.57 570.83,285.27 572.25,284.97 573.67,284.67 575.08,284.37 576.50,284.06 577.92,283.76 579.33,283.46 580.75,283.16 582.17,282.86 583.58,282.56 585.00,282.26 586.42,281.96 587.83,281.65 589.25,281.35 590.67,281.05 592.08,280.75 593.50,280.45 594.92,280.15 596.33,279.85 597.75,279.54 599.17,279.24 600.58,278.94 602.00,278.64 603.42,278.34 604.83,278.04 606.25,277.74 607.67,277.44 609.08,277.13 610.50,276.83 611.92,276.53 613.33,276.23 614.75,275.93 616.17,275.63 617.58,275.33 619.00,275.03 620.42,274.72 621.83,274.42 623.25,274.12 624.67,273.82 626.08,273.52 627.50,273.22 628.92,272.92 630.33,272.62 631.75,272.31 633.17,272.01 634.58,271.71 636.00,271.41 637.42,271.11 638.83,270.81 640.25,270.51 641.67,270.21 643.08,269.90 644.50,269.60 645.92,269.30 647.33,269.00 648.75,268.70 650.17,268.40 651.58,268.10 653.00,267.79 654.42,267.49 655.83,267.19 657.25,266.89 658.67,266.59 660.08,265.99 661.50,265.38 662.92,264.78 664.33,264.18 665.75,263.58 667.17,262.97 668.58,262.37 670.00,261.77 671.42,261.17 672.83,260.56 674.25,259.96 675.67,259.36 677.08,258.76 678.50,258.15 679.92,257.55 681.33,256.95 682.75,256.35 684.17,255.74 685.58,255.14 687.00,254.54 688.42,253.94 689.83,253.33 691.25,252.73 692.67,252.13 694.08,251.53 695.50,250.92 696.92,250.32 698.33,249.72 699.75,249.12 701.17,248.51 702.58,247.91 704.00,247.31 705.42,246.71 706.83,246.10 708.25,245.50 709.67,244.90 711.08,244.29 712.50,243.69 713.92,243.09 715.33,242.49 716.75,241.88 718.17,241.28 719.58,240.68 721.00,240.08 722.42,239.47 723.83,238.87 725.25,238.27 726.67,237.67 728.08,237.06 729.50,236.46 730.92,235.86 732.33,235.26 733.75,234.65 735.17,234.05 736.58,233.45 738.00,232.85 739.42,232.24 740.83,231.64 742.25,231.04 743.67,230.44 745.08,229.83 746.50,229.23 747.92,228.63 749.33,228.03 750.75,227.42 752.17,226.82 753.58,226.22 755.00,225.62 756.42,225.01 757.83,224.41 759.25,223.81 760.67,223.21 762.08,222.60 763.50,222.00 764.92,221.40 766.33,220.79 767.75,220.19 769.17,219.59 770.58,218.99 772.00,218.38 773.42,217.78 774.83,217.18 776.25,216.58 777.67,215.97 779.08,215.37 780.50,214.77 781.92,214.17 783.33,213.56 784.75,212.96 786.17,212.36 787.58,211.76 789.00,211.15 790.42,210.55 791.83,209.95 793.25,209.35 794.67,208.74 796.08,208.14 797.50,207.54 798.92,206.94 800.33,206.33 801.75,205.73 803.17,205.13 804.58,204.53 806.00,203.92 807.42,203.32 808.83,202.72 810.25,202.12 811.67,201.51 813.08,200.91 814.50,200.31 815.92,199.71 817.33,199.10 818.75,198.50 820.17,197.90 821.58,197.29 823.00,196.69 824.42,196.09 825.83,195.49 827.25,194.88 828.67,194.28 830.08,193.68 831.50,193.08 832.92,192.47 834.33,191.87 835.75,191.27 837.17,190.67 838.58,190.06 840.00,189.46 841.42,188.86 842.83,188.26 844.25,187.65 845.67,187.05 847.08,186.45 848.50,185.85 849.92,185.24 851.33,184.64 852.75,184.04 854.17,183.44 855.58,182.83 857.00,182.23 858.42,181.63 859.83,181.03 861.25,180.42 862.67,179.82 864.08,179.22 865.50,178.62 866.92,178.01 868.33,177.41 869.75,176.81 871.17,176.21 872.58,175.60 874.00,175.00 875.42,174.40 876.83,173.79 878.25,173.19 879.67,172.59 881.08,171.99 882.50,171.38 883.92,170.78 885.33,170.18 886.75,169.58 888.17,168.97 889.58,168.37 891.00,167.77 892.42,167.17 893.83,166.56 895.25,165.96 896.67,165.36 898.08,164.76 899.50,164.15 900.92,163.55 902.33,162.95 903.75,162.35 905.17,161.74 906.58,161.14 908.00,160.54 909.42,159.94 910.83,159.33 912.25,158.73 913.67,158.13 915.08,157.53 916.50,156.92 917.92,156.32 919.33,155.72 920.75,155.12 922.17,154.51 923.58,153.91 925.00,153.31 926.42,152.71 927.83,152.10 929.25,151.50 930.67,150.90 932.08,150.29 933.50,149.69 934.92,149.09 936.33,148.49 937.75,147.88 939.17,147.28 940.58,146.68 942.00,146.08" fill="none" stroke="#c84632" stroke-width="4" stroke-linecap="round" stroke-linejoin="round"/>
<text x="517.0" y="662" class="label" text-anchor="middle" >&#23448;&#26041;&#20998;&#25968; Score</text>
<text x="34" y="363.0" class="label" text-anchor="middle" transform="rotate(-90 34 363.0)">G(&#20998;&#25968;) = &#21333;&#26354;TR - &#23450;&#25968;</text>
<circle cx="92.00" cy="567.87" r="5" fill="#c84632"/>
<text x="92.0" y="551.8717948717949" class="rank" text-anchor="middle" >70w</text>
<circle cx="233.67" cy="447.36" r="5" fill="#c84632"/>
<text x="233.66666666666666" y="431.35897435897436" class="rank" text-anchor="middle" >75w</text>
<circle cx="375.33" cy="326.85" r="5" fill="#c84632"/>
<text x="375.3333333333333" y="310.8461538461538" class="rank" text-anchor="middle" >金雅 / S</text>
<circle cx="658.67" cy="266.59" r="5" fill="#c84632"/>
<text x="658.6666666666666" y="250.5897435897436" class="rank" text-anchor="middle" >银粹 / AA</text>
<circle cx="800.33" cy="206.33" r="5" fill="#c84632"/>
<text x="800.3333333333334" y="190.33333333333331" class="rank" text-anchor="middle" >粉雅 / SS</text>
<circle cx="885.33" cy="170.18" r="5" fill="#c84632"/>
<text x="885.3333333333334" y="154.17948717948718" class="rank" text-anchor="middle" >紫雅 / SSS</text>
<circle cx="942.00" cy="146.08" r="5" fill="#c84632"/>
<text x="942.0" y="130.07692307692304" class="rank" text-anchor="middle" >极 / SSS+</text>
<rect x="990" y="155" width="325" height="240" rx="8" fill="#fff8ea" stroke="#d6bd8e"/>
<text x="1008" y="187" class="label" text-anchor="start" >&#20363;&#65306;&#23450;&#25968; 10.5</text>
<text x="1008" y="219" class="mono" text-anchor="start" > 70w  ->  8.50</text>
<text x="1008" y="243" class="mono" text-anchor="start" > 75w  ->  9.50</text>
<text x="1008" y="267" class="mono" text-anchor="start" > 80w  ->  10.50</text>
<text x="1008" y="291" class="mono" text-anchor="start" > 90w  ->  11.00</text>
<text x="1008" y="315" class="mono" text-anchor="start" > 95w  ->  11.50</text>
<text x="1008" y="339" class="mono" text-anchor="start" > 98w  ->  11.80</text>
<text x="1008" y="363" class="mono" text-anchor="start" >100w  ->  12.00</text>
<text x="92" y="684" class="label" text-anchor="start" >0 - 100&#19975; &#24635;&#35272;&#65306;&#20302;&#20998;&#27573;&#19981;&#36807;&#24230;&#32454;&#20998;&#65292;&#39640;&#20998;&#27573;&#26356;&#32454;</text>
<line x1="92.00" y1="813.59" x2="1302.00" y2="813.59" stroke="#ded7cc" stroke-width="1" />
<text x="78" y="818.5897435897435" class="tick" text-anchor="end" >-2</text>
<line x1="92.00" y1="787.95" x2="1302.00" y2="787.95" stroke="#ded7cc" stroke-width="1" />
<text x="78" y="792.9487179487179" class="tick" text-anchor="end" >-1</text>
<line x1="92.00" y1="762.31" x2="1302.00" y2="762.31" stroke="#ded7cc" stroke-width="1" />
<text x="78" y="767.3076923076923" class="tick" text-anchor="end" >+0</text>
<line x1="92.00" y1="736.67" x2="1302.00" y2="736.67" stroke="#ded7cc" stroke-width="1" />
<text x="78" y="741.6666666666666" class="tick" text-anchor="end" >+1</text>
<line x1="92.00" y1="723.85" x2="1302.00" y2="723.85" stroke="#ded7cc" stroke-width="1" />
<text x="78" y="728.8461538461538" class="tick" text-anchor="end" >+1.5</text>
<line x1="92.00" y1="720.00" x2="92.00" y2="820.00" stroke="#ded7cc" stroke-width="1" />
<text x="92.0" y="844" class="tick" text-anchor="middle" >0</text>
<line x1="697.00" y1="720.00" x2="697.00" y2="820.00" stroke="#ded7cc" stroke-width="1" />
<text x="697.0" y="844" class="tick" text-anchor="middle" >50w</text>
<line x1="939.00" y1="720.00" x2="939.00" y2="820.00" stroke="#ded7cc" stroke-width="1" />
<text x="939.0" y="844" class="tick" text-anchor="middle" >70w</text>
<line x1="999.50" y1="720.00" x2="999.50" y2="820.00" stroke="#ded7cc" stroke-width="1" />
<text x="999.5" y="844" class="tick" text-anchor="middle" >75w</text>
<line x1="1060.00" y1="720.00" x2="1060.00" y2="820.00" stroke="#ded7cc" stroke-width="1" />
<text x="1060.0" y="844" class="tick" text-anchor="middle" >80w</text>
<line x1="1181.00" y1="720.00" x2="1181.00" y2="820.00" stroke="#ded7cc" stroke-width="1" />
<text x="1181.0" y="844" class="tick" text-anchor="middle" >90w</text>
<line x1="1302.00" y1="720.00" x2="1302.00" y2="820.00" stroke="#ded7cc" stroke-width="1" />
<text x="1302.0" y="844" class="tick" text-anchor="middle" >100w</text>
<line x1="92.00" y1="820.00" x2="1302.00" y2="820.00" stroke="#302b27" stroke-width="2" />
<line x1="92.00" y1="720.00" x2="92.00" y2="820.00" stroke="#302b27" stroke-width="2" />
<polyline points="92.00,813.59 94.42,813.59 96.84,813.59 99.26,813.59 101.68,813.59 104.10,813.59 106.52,813.59 108.94,813.59 111.36,813.59 113.78,813.59 116.20,813.59 118.62,813.59 121.04,813.59 123.46,813.59 125.88,813.59 128.30,813.59 130.72,813.59 133.14,813.59 135.56,813.59 137.98,813.59 140.40,813.59 142.82,813.59 145.24,813.59 147.66,813.59 150.08,813.59 152.50,813.59 154.92,813.59 157.34,813.59 159.76,813.59 162.18,813.59 164.60,813.59 167.02,813.59 169.44,813.59 171.86,813.59 174.28,813.59 176.70,813.59 179.12,813.59 181.54,813.59 183.96,813.59 186.38,813.59 188.80,813.59 191.22,813.59 193.64,813.59 196.06,813.59 198.48,813.59 200.90,813.59 203.32,813.59 205.74,813.59 208.16,813.59 210.58,813.59 213.00,813.59 215.42,813.59 217.84,813.59 220.26,813.59 222.68,813.59 225.10,813.59 227.52,813.59 229.94,813.59 232.36,813.59 234.78,813.59 237.20,813.59 239.62,813.59 242.04,813.59 244.46,813.59 246.88,813.59 249.30,813.59 251.72,813.59 254.14,813.59 256.56,813.59 258.98,813.59 261.40,813.59 263.82,813.59 266.24,813.59 268.66,813.59 271.08,813.59 273.50,813.59 275.92,813.59 278.34,813.59 280.76,813.59 283.18,813.59 285.60,813.59 288.02,813.59 290.44,813.59 292.86,813.59 295.28,813.59 297.70,813.59 300.12,813.59 302.54,813.59 304.96,813.59 307.38,813.59 309.80,813.59 312.22,813.59 314.64,813.59 317.06,813.59 319.48,813.59 321.90,813.59 324.32,813.59 326.74,813.59 329.16,813.59 331.58,813.59 334.00,813.59 336.42,813.59 338.84,813.59 341.26,813.59 343.68,813.59 346.10,813.59 348.52,813.59 350.94,813.59 353.36,813.59 355.78,813.59 358.20,813.59 360.62,813.59 363.04,813.59 365.46,813.59 367.88,813.59 370.30,813.59 372.72,813.59 375.14,813.59 377.56,813.59 379.98,813.59 382.40,813.59 384.82,813.59 387.24,813.59 389.66,813.59 392.08,813.59 394.50,813.59 396.92,813.59 399.34,813.59 401.76,813.59 404.18,813.59 406.60,813.59 409.02,813.59 411.44,813.59 413.86,813.59 416.28,813.59 418.70,813.59 421.12,813.59 423.54,813.59 425.96,813.59 428.38,813.59 430.80,813.59 433.22,813.59 435.64,813.59 438.06,813.59 440.48,813.59 442.90,813.59 445.32,813.59 447.74,813.59 450.16,813.59 452.58,813.59 455.00,813.59 457.42,813.59 459.84,813.59 462.26,813.59 464.68,813.59 467.10,813.59 469.52,813.59 471.94,813.59 474.36,813.59 476.78,813.59 479.20,813.59 481.62,813.59 484.04,813.59 486.46,813.59 488.88,813.59 491.30,813.59 493.72,813.59 496.14,813.59 498.56,813.59 500.98,813.59 503.40,813.59 505.82,813.59 508.24,813.59 510.66,813.59 513.08,813.59 515.50,813.59 517.92,813.59 520.34,813.59 522.76,813.59 525.18,813.59 527.60,813.59 530.02,813.59 532.44,813.59 534.86,813.59 537.28,813.59 539.70,813.59 542.12,813.59 544.54,813.59 546.96,813.59 549.38,813.59 551.80,813.59 554.22,813.59 556.64,813.59 559.06,813.59 561.48,813.59 563.90,813.59 566.32,813.59 568.74,813.59 571.16,813.59 573.58,813.59 576.00,813.59 578.42,813.59 580.84,813.59 583.26,813.59 585.68,813.59 588.10,813.59 590.52,813.59 592.94,813.59 595.36,813.59 597.78,813.59 600.20,813.59 602.62,813.59 605.04,813.59 607.46,813.59 609.88,813.59 612.30,813.59 614.72,813.59 617.14,813.59 619.56,813.59 621.98,813.59 624.40,813.59 626.82,813.59 629.24,813.59 631.66,813.59 634.08,813.59 636.50,813.59 638.92,813.59 641.34,813.59 643.76,813.59 646.18,813.59 648.60,813.59 651.02,813.59 653.44,813.59 655.86,813.59 658.28,813.59 660.70,813.59 663.12,813.59 665.54,813.59 667.96,813.59 670.38,813.59 672.80,813.59 675.22,813.59 677.64,813.59 680.06,813.59 682.48,813.59 684.90,813.59 687.32,813.59 689.74,813.59 692.16,813.59 694.58,813.59 697.00,813.59 699.42,813.59 701.84,813.59 704.26,813.59 706.68,813.59 709.10,813.59 711.52,813.59 713.94,813.59 716.36,813.59 718.78,813.59 721.20,813.59 723.62,813.59 726.04,813.59 728.46,813.59 730.88,813.59 733.30,813.59 735.72,813.59 738.14,813.59 740.56,813.59 742.98,813.59 745.40,813.59 747.82,813.59 750.24,813.59 752.66,813.59 755.08,813.59 757.50,813.59 759.92,813.59 762.34,813.59 764.76,813.59 767.18,813.59 769.60,813.59 772.02,813.59 774.44,813.59 776.86,813.59 779.28,813.59 781.70,813.59 784.12,813.59 786.54,813.59 788.96,813.59 791.38,813.59 793.80,813.59 796.22,813.59 798.64,813.59 801.06,813.59 803.48,813.59 805.90,813.59 808.32,813.59 810.74,813.59 813.16,813.59 815.58,813.59 818.00,813.59 820.42,813.59 822.84,813.59 825.26,813.59 827.68,813.59 830.10,813.59 832.52,813.59 834.94,813.59 837.36,813.59 839.78,813.59 842.20,813.59 844.62,813.59 847.04,813.59 849.46,813.59 851.88,813.59 854.30,813.59 856.72,813.59 859.14,813.59 861.56,813.59 863.98,813.59 866.40,813.59 868.82,813.59 871.24,813.59 873.66,813.59 876.08,813.59 878.50,813.59 880.92,813.59 883.34,813.59 885.76,813.59 888.18,813.59 890.60,813.59 893.02,813.59 895.44,813.59 897.86,813.59 900.28,813.59 902.70,813.59 905.12,813.59 907.54,813.59 909.96,813.59 912.38,813.59 914.80,813.59 917.22,813.59 919.64,813.59 922.06,813.59 924.48,813.59 926.90,813.59 929.32,813.59 931.74,813.59 934.16,813.59 936.58,813.59 939.00,813.59 941.42,812.56 943.84,811.54 946.26,810.51 948.68,809.49 951.10,808.46 953.52,807.44 955.94,806.41 958.36,805.38 960.78,804.36 963.20,803.33 965.62,802.31 968.04,801.28 970.46,800.26 972.88,799.23 975.30,798.21 977.72,797.18 980.14,796.15 982.56,795.13 984.98,794.10 987.40,793.08 989.82,792.05 992.24,791.03 994.66,790.00 997.08,788.97 999.50,787.95 1001.92,786.92 1004.34,785.90 1006.76,784.87 1009.18,783.85 1011.60,782.82 1014.02,781.79 1016.44,780.77 1018.86,779.74 1021.28,778.72 1023.70,777.69 1026.12,776.67 1028.54,775.64 1030.96,774.62 1033.38,773.59 1035.80,772.56 1038.22,771.54 1040.64,770.51 1043.06,769.49 1045.48,768.46 1047.90,767.44 1050.32,766.41 1052.74,765.38 1055.16,764.36 1057.58,763.33 1060.00,762.31 1062.42,762.05 1064.84,761.79 1067.26,761.54 1069.68,761.28 1072.10,761.03 1074.52,760.77 1076.94,760.51 1079.36,760.26 1081.78,760.00 1084.20,759.74 1086.62,759.49 1089.04,759.23 1091.46,758.97 1093.88,758.72 1096.30,758.46 1098.72,758.21 1101.14,757.95 1103.56,757.69 1105.98,757.44 1108.40,757.18 1110.82,756.92 1113.24,756.67 1115.66,756.41 1118.08,756.15 1120.50,755.90 1122.92,755.64 1125.34,755.38 1127.76,755.13 1130.18,754.87 1132.60,754.62 1135.02,754.36 1137.44,754.10 1139.86,753.85 1142.28,753.59 1144.70,753.33 1147.12,753.08 1149.54,752.82 1151.96,752.56 1154.38,752.31 1156.80,752.05 1159.22,751.79 1161.64,751.54 1164.06,751.28 1166.48,751.03 1168.90,750.77 1171.32,750.51 1173.74,750.26 1176.16,750.00 1178.58,749.74 1181.00,749.49 1183.42,748.97 1185.84,748.46 1188.26,747.95 1190.68,747.44 1193.10,746.92 1195.52,746.41 1197.94,745.90 1200.36,745.38 1202.78,744.87 1205.20,744.36 1207.62,743.85 1210.04,743.33 1212.46,742.82 1214.88,742.31 1217.30,741.79 1219.72,741.28 1222.14,740.77 1224.56,740.26 1226.98,739.74 1229.40,739.23 1231.82,738.72 1234.24,738.21 1236.66,737.69 1239.08,737.18 1241.50,736.67 1243.92,736.15 1246.34,735.64 1248.76,735.13 1251.18,734.62 1253.60,734.10 1256.02,733.59 1258.44,733.08 1260.86,732.56 1263.28,732.05 1265.70,731.54 1268.12,731.03 1270.54,730.51 1272.96,730.00 1275.38,729.49 1277.80,728.97 1280.22,728.46 1282.64,727.95 1285.06,727.44 1287.48,726.92 1289.90,726.41 1292.32,725.90 1294.74,725.38 1297.16,724.87 1299.58,724.36 1302.00,723.85" fill="none" stroke="#2d719d" stroke-width="3" stroke-linecap="round" stroke-linejoin="round"/>
<rect x="939.00" y="720.00" width="363.00" height="100.00" fill="none" stroke="#c84632" stroke-width="2" stroke-dasharray="7 5"/>
<text x="92" y="882" class="small" text-anchor="start" >&#35828;&#26126;&#65306;&#36825;&#26159; rank-based &#35843;&#21442;&#33609;&#26696;&#12290;80&#19975;/&#37329;&#38597;&#23545;&#24212;&#23450;&#25968;+0&#65292;100&#19975;/&#26497;&#23545;&#24212;&#23450;&#25968;+1.5&#12290;</text>
</svg>
