<svg xmlns="http://www.w3.org/2000/svg" width="1400" height="900" viewBox="0 0 1400 900">
<rect width="100%" height="100%" fill="#fbfaf7"/>
<style>text{font-family:'Microsoft YaHei','Segoe UI',Arial,sans-serif;fill:#25211e}.title{font-size:34px;font-weight:700}.sub{font-size:18px;fill:#6d645c}.label{font-size:18px;font-weight:650}.small{font-size:15px;fill:#6d645c}.tick{font-size:14px;fill:#6d645c}.rank{font-size:16px;font-weight:700;fill:#c84632}.mono{font-family:Consolas,'Microsoft YaHei',monospace;font-size:16px;fill:#3a332e}</style>
<text x="92" y="50" class="title" text-anchor="start" >Taiko Rating &#20998;&#25968;&#34917;&#27491;&#26354;&#32447;</text>
<text x="92" y="82" class="sub" text-anchor="start" >&#21333;&#26354; TR = &#35889;&#38754;&#23450;&#25968; + G(&#23448;&#26041;&#20998;&#25968;)</text>
<text x="92" y="108" class="small" text-anchor="start" >&#36825;&#26159;&#19968;&#26465;&#31867;&#20284; CHUNITHM &#30340;&#36830;&#32493;&#20998;&#27573;&#30452;&#32447;&#65306;70&#19975;&#36215;&#35745;&#65292;75&#19975;/&#38134;&#31929;&#12289;90&#19975;/&#31881;&#12289;95&#19975;/&#32043;&#12289;100&#19975;/&#26497;&#12290;</text>
<line x1="92.00" y1="567.87" x2="942.00" y2="567.87" stroke="#ded7cc" stroke-width="1" />
<text x="78" y="572.8717948717949" class="tick" text-anchor="end" >-2</text>
<line x1="92.00" y1="447.36" x2="942.00" y2="447.36" stroke="#ded7cc" stroke-width="1" />
<text x="78" y="452.35897435897436" class="tick" text-anchor="end" >-1</text>
<line x1="92.00" y1="326.85" x2="942.00" y2="326.85" stroke="#ded7cc" stroke-width="1" />
<text x="78" y="331.8461538461538" class="tick" text-anchor="end" >+0</text>
<line x1="92.00" y1="266.59" x2="942.00" y2="266.59" stroke="#ded7cc" stroke-width="1" />
<text x="78" y="271.5897435897436" class="tick" text-anchor="end" >+0.5</text>
<line x1="92.00" y1="206.33" x2="942.00" y2="206.33" stroke="#ded7cc" stroke-width="1" />
<text x="78" y="211.33333333333331" class="tick" text-anchor="end" >+1</text>
<line x1="92.00" y1="146.08" x2="942.00" y2="146.08" stroke="#ded7cc" stroke-width="1" />
<text x="78" y="151.07692307692304" class="tick" text-anchor="end" >+1.5</text>
<line x1="92.00" y1="128.00" x2="92.00" y2="598.00" stroke="#c7b9a8" stroke-width="1" />
<text x="92.0" y="626" class="tick" text-anchor="middle" >70w</text>
<line x1="233.67" y1="128.00" x2="233.67" y2="598.00" stroke="#c7b9a8" stroke-width="1" />
<text x="233.66666666666666" y="626" class="tick" text-anchor="middle" >75w</text>
<line x1="658.67" y1="128.00" x2="658.67" y2="598.00" stroke="#c7b9a8" stroke-width="1" />
<text x="658.6666666666666" y="626" class="tick" text-anchor="middle" >90w</text>
<line x1="800.33" y1="128.00" x2="800.33" y2="598.00" stroke="#c7b9a8" stroke-width="1" />
<text x="800.3333333333334" y="626" class="tick" text-anchor="middle" >95w</text>
<line x1="942.00" y1="128.00" x2="942.00" y2="598.00" stroke="#c7b9a8" stroke-width="1" />
<text x="942.0" y="626" class="tick" text-anchor="middle" >100w</text>
<line x1="92.00" y1="598.00" x2="942.00" y2="598.00" stroke="#302b27" stroke-width="2" />
<line x1="92.00" y1="128.00" x2="92.00" y2="598.00" stroke="#302b27" stroke-width="2" />
<rect x="92.00" y="128.00" width="850.00" height="470.00" fill="#f0f6f8" opacity="0.8"/>
<polyline points="92.00,567.87 93.42,566.67 94.83,565.46 96.25,564.26 97.67,563.05 99.08,561.85 100.50,560.64 101.92,559.44 103.33,558.23 104.75,557.03 106.17,555.82 107.58,554.62 109.00,553.41 110.42,552.21 111.83,551.00 113.25,549.79 114.67,548.59 116.08,547.38 117.50,546.18 118.92,544.97 120.33,543.77 121.75,542.56 123.17,541.36 124.58,540.15 126.00,538.95 127.42,537.74 128.83,536.54 130.25,535.33 131.67,534.13 133.08,532.92 134.50,531.72 135.92,530.51 137.33,529.31 138.75,528.10 140.17,526.90 141.58,525.69 143.00,524.49 144.42,523.28 145.83,522.08 147.25,520.87 148.67,519.67 150.08,518.46 151.50,517.26 152.92,516.05 154.33,514.85 155.75,513.64 157.17,512.44 158.58,511.23 160.00,510.03 161.42,508.82 162.83,507.62 164.25,506.41 165.67,505.21 167.08,504.00 168.50,502.79 169.92,501.59 171.33,500.38 172.75,499.18 174.17,497.97 175.58,496.77 177.00,495.56 178.42,494.36 179.83,493.15 181.25,491.95 182.67,490.74 184.08,489.54 185.50,488.33 186.92,487.13 188.33,485.92 189.75,484.72 191.17,483.51 192.58,482.31 194.00,481.10 195.42,479.90 196.83,478.69 198.25,477.49 199.67,476.28 201.08,475.08 202.50,473.87 203.92,472.67 205.33,471.46 206.75,470.26 208.17,469.05 209.58,467.85 211.00,466.64 212.42,465.44 213.83,464.23 215.25,463.03 216.67,461.82 218.08,460.62 219.50,459.41 220.92,458.21 222.33,457.00 223.75,455.79 225.17,454.59 226.58,453.38 228.00,452.18 229.42,450.97 230.83,449.77 232.25,448.56 233.67,447.36 235.08,446.76 236.50,446.15 237.92,445.55 239.33,444.95 240.75,444.35 242.17,443.74 243.58,443.14 245.00,442.54 246.42,441.94 247.83,441.33 249.25,440.73 250.67,440.13 252.08,439.53 253.50,438.92 254.92,438.32 256.33,437.72 257.75,437.12 259.17,436.51 260.58,435.91 262.00,435.31 263.42,434.71 264.83,434.10 266.25,433.50 267.67,432.90 269.08,432.29 270.50,431.69 271.92,431.09 273.33,430.49 274.75,429.88 276.17,429.28 277.58,428.68 279.00,428.08 280.42,427.47 281.83,426.87 283.25,426.27 284.67,425.67 286.08,425.06 287.50,424.46 288.92,423.86 290.33,423.26 291.75,422.65 293.17,422.05 294.58,421.45 296.00,420.85 297.42,420.24 298.83,419.64 300.25,419.04 301.67,418.44 303.08,417.83 304.50,417.23 305.92,416.63 307.33,416.03 308.75,415.42 310.17,414.82 311.58,414.22 313.00,413.62 314.42,413.01 315.83,412.41 317.25,411.81 318.67,411.21 320.08,410.60 321.50,410.00 322.92,409.40 324.33,408.79 325.75,408.19 327.17,407.59 328.58,406.99 330.00,406.38 331.42,405.78 332.83,405.18 334.25,404.58 335.67,403.97 337.08,403.37 338.50,402.77 339.92,402.17 341.33,401.56 342.75,400.96 344.17,400.36 345.58,399.76 347.00,399.15 348.42,398.55 349.83,397.95 351.25,397.35 352.67,396.74 354.08,396.14 355.50,395.54 356.92,394.94 358.33,394.33 359.75,393.73 361.17,393.13 362.58,392.53 364.00,391.92 365.42,391.32 366.83,390.72 368.25,390.12 369.67,389.51 371.08,388.91 372.50,388.31 373.92,387.71 375.33,387.10 376.75,386.50 378.17,385.90 379.58,385.29 381.00,384.69 382.42,384.09 383.83,383.49 385.25,382.88 386.67,382.28 388.08,381.68 389.50,381.08 390.92,380.47 392.33,379.87 393.75,379.27 395.17,378.67 396.58,378.06 398.00,377.46 399.42,376.86 400.83,376.26 402.25,375.65 403.67,375.05 405.08,374.45 406.50,373.85 407.92,373.24 409.33,372.64 410.75,372.04 412.17,371.44 413.58,370.83 415.00,370.23 416.42,369.63 417.83,369.03 419.25,368.42 420.67,367.82 422.08,367.22 423.50,366.62 424.92,366.01 426.33,365.41 427.75,364.81 429.17,364.21 430.58,363.60 432.00,363.00 433.42,362.40 434.83,361.79 436.25,361.19 437.67,360.59 439.08,359.99 440.50,359.38 441.92,358.78 443.33,358.18 444.75,357.58 446.17,356.97 447.58,356.37 449.00,355.77 450.42,355.17 451.83,354.56 453.25,353.96 454.67,353.36 456.08,352.76 457.50,352.15 458.92,351.55 460.33,350.95 461.75,350.35 463.17,349.74 464.58,349.14 466.00,348.54 467.42,347.94 468.83,347.33 470.25,346.73 471.67,346.13 473.08,345.53 474.50,344.92 475.92,344.32 477.33,343.72 478.75,343.12 480.17,342.51 481.58,341.91 483.00,341.31 484.42,340.71 485.83,340.10 487.25,339.50 488.67,338.90 490.08,338.29 491.50,337.69 492.92,337.09 494.33,336.49 495.75,335.88 497.17,335.28 498.58,334.68 500.00,334.08 501.42,333.47 502.83,332.87 504.25,332.27 505.67,331.67 507.08,331.06 508.50,330.46 509.92,329.86 511.33,329.26 512.75,328.65 514.17,328.05 515.58,327.45 517.00,326.85 518.42,326.24 519.83,325.64 521.25,325.04 522.67,324.44 524.08,323.83 525.50,323.23 526.92,322.63 528.33,322.03 529.75,321.42 531.17,320.82 532.58,320.22 534.00,319.62 535.42,319.01 536.83,318.41 538.25,317.81 539.67,317.21 541.08,316.60 542.50,316.00 543.92,315.40 545.33,314.79 546.75,314.19 548.17,313.59 549.58,312.99 551.00,312.38 552.42,311.78 553.83,311.18 555.25,310.58 556.67,309.97 558.08,309.37 559.50,308.77 560.92,308.17 562.33,307.56 563.75,306.96 565.17,306.36 566.58,305.76 568.00,305.15 569.42,304.55 570.83,303.95 572.25,303.35 573.67,302.74 575.08,302.14 576.50,301.54 577.92,300.94 579.33,300.33 580.75,299.73 582.17,299.13 583.58,298.53 585.00,297.92 586.42,297.32 587.83,296.72 589.25,296.12 590.67,295.51 592.08,294.91 593.50,294.31 594.92,293.71 596.33,293.10 597.75,292.50 599.17,291.90 600.58,291.29 602.00,290.69 603.42,290.09 604.83,289.49 606.25,288.88 607.67,288.28 609.08,287.68 610.50,287.08 611.92,286.47 613.33,285.87 614.75,285.27 616.17,284.67 617.58,284.06 619.00,283.46 620.42,282.86 621.83,282.26 623.25,281.65 624.67,281.05 626.08,280.45 627.50,279.85 628.92,279.24 630.33,278.64 631.75,278.04 633.17,277.44 634.58,276.83 636.00,276.23 637.42,275.63 638.83,275.03 640.25,274.42 641.67,273.82 643.08,273.22 644.50,272.62 645.92,272.01 647.33,271.41 648.75,270.81 650.17,270.21 651.58,269.60 653.00,269.00 654.42,268.40 655.83,267.79 657.25,267.19 658.67,266.59 660.08,265.99 661.50,265.38 662.92,264.78 664.33,264.18 665.75,263.58 667.17,262.97 668.58,262.37 670.00,261.77 671.42,261.17 672.83,260.56 674.25,259.96 675.67,259.36 677.08,258.76 678.50,258.15 679.92,257.55 681.33,256.95 682.75,256.35 684.17,255.74 685.58,255.14 687.00,254.54 688.42,253.94 689.83,253.33 691.25,252.73 692.67,252.13 694.08,251.53 695.50,250.92 696.92,250.32 698.33,249.72 699.75,249.12 701.17,248.51 702.58,247.91 704.00,247.31 705.42,246.71 706.83,246.10 708.25,245.50 709.67,244.90 711.08,244.29 712.50,243.69 713.92,243.09 715.33,242.49 716.75,241.88 718.17,241.28 719.58,240.68 721.00,240.08 722.42,239.47 723.83,238.87 725.25,238.27 726.67,237.67 728.08,237.06 729.50,236.46 730.92,235.86 732.33,235.26 733.75,234.65 735.17,234.05 736.58,233.45 738.00,232.85 739.42,232.24 740.83,231.64 742.25,231.04 743.67,230.44 745.08,229.83 746.50,229.23 747.92,228.63 749.33,228.03 750.75,227.42 752.17,226.82 753.58,226.22 755.00,225.62 756.42,225.01 757.83,224.41 759.25,223.81 760.67,223.21 762.08,222.60 763.50,222.00 764.92,221.40 766.33,220.79 767.75,220.19 769.17,219.59 770.58,218.99 772.00,218.38 773.42,217.78 774.83,217.18 776.25,216.58 777.67,215.97 779.08,215.37 780.50,214.77 781.92,214.17 783.33,213.56 784.75,212.96 786.17,212.36 787.58,211.76 789.00,211.15 790.42,210.55 791.83,209.95 793.25,209.35 794.67,208.74 796.08,208.14 797.50,207.54 798.92,206.94 800.33,206.33 801.75,205.73 803.17,205.13 804.58,204.53 806.00,203.92 807.42,203.32 808.83,202.72 810.25,202.12 811.67,201.51 813.08,200.91 814.50,200.31 815.92,199.71 817.33,199.10 818.75,198.50 820.17,197.90 821.58,197.29 823.00,196.69 824.42,196.09 825.83,195.49 827.25,194.88 828.67,194.28 830.08,193.68 831.50,193.08 832.92,192.47 834.33,191.87 835.75,191.27 837.17,190.67 838.58,190.06 840.00,189.46 841.42,188.86 842.83,188.26 844.25,187.65 845.67,187.05 847.08,186.45 848.50,185.85 849.92,185.24 851.33,184.64 852.75,184.04 854.17,183.44 855.58,182.83 857.00,182.23 858.42,181.63 859.83,181.03 861.25,180.42 862.67,179.82 864.08,179.22 865.50,178.62 866.92,178.01 868.33,177.41 869.75,176.81 871.17,176.21 872.58,175.60 874.00,175.00 875.42,174.40 876.83,173.79 878.25,173.19 879.67,172.59 881.08,171.99 882.50,171.38 883.92,170.78 885.33,170.18 886.75,169.58 888.17,168.97 889.58,168.37 891.00,167.77 892.42,167.17 893.83,166.56 895.25,165.96 896.67,165.36 898.08,164.76 899.50,164.15 900.92,163.55 902.33,162.95 903.75,162.35 905.17,161.74 906.58,161.14 908.00,160.54 909.42,159.94 910.83,159.33 912.25,158.73 913.67,158.13 915.08,157.53 916.50,156.92 917.92,156.32 919.33,155.72 920.75,155.12 922.17,154.51 923.58,153.91 925.00,153.31 926.42,152.71 927.83,152.10 929.25,151.50 930.67,150.90 932.08,150.29 933.50,149.69 934.92,149.09 936.33,148.49 937.75,147.88 939.17,147.28 940.58,146.68 942.00,146.08" fill="none" stroke="#c84632" stroke-width="4" stroke-linecap="round" stroke-linejoin="round"/>
<text x="517.0" y="662" class="label" text-anchor="middle" >&#23448;&#26041;&#20998;&#25968; Score</text>
<text x="34" y="363.0" class="label" text-anchor="middle" transform="rotate(-90 34 363.0)">G(&#20998;&#25968;) = &#21333;&#26354;TR - &#23450;&#25968;</text>
<circle cx="92.00" cy="567.87" r="5" fill="#c84632"/>
<text x="92.0" y="551.8717948717949" class="rank" text-anchor="middle" >过关 / 70w</text>
<circle cx="233.67" cy="447.36" r="5" fill="#c84632"/>
<text x="233.66666666666666" y="431.35897435897436" class="rank" text-anchor="middle" >银粹 / 75w</text>
<circle cx="658.67" cy="266.59" r="5" fill="#c84632"/>
<text x="658.6666666666666" y="250.5897435897436" class="rank" text-anchor="middle" >粉 / 90w</text>
<circle cx="800.33" cy="206.33" r="5" fill="#c84632"/>
<text x="800.3333333333334" y="190.33333333333331" class="rank" text-anchor="middle" >紫 / 95w</text>
<circle cx="942.00" cy="146.08" r="5" fill="#c84632"/>
<text x="942.0" y="130.07692307692304" class="rank" text-anchor="middle" >极 / 100w</text>
<rect x="990" y="155" width="325" height="240" rx="8" fill="#fff8ea" stroke="#d6bd8e"/>
<text x="1008" y="187" class="label" text-anchor="start" >&#20363;&#65306;&#23450;&#25968; 10.5</text>
<text x="1008" y="219" class="mono" text-anchor="start" > 65w  ->  skip</text>
<text x="1008" y="243" class="mono" text-anchor="start" > 70w  ->  8.50</text>
<text x="1008" y="267" class="mono" text-anchor="start" > 75w  ->  9.50</text>
<text x="1008" y="291" class="mono" text-anchor="start" > 90w  ->  11.00</text>
<text x="1008" y="315" class="mono" text-anchor="start" > 95w  ->  11.50</text>
<text x="1008" y="339" class="mono" text-anchor="start" >100w  ->  12.00</text>
<text x="92" y="684" class="label" text-anchor="start" >0 - 100&#19975; &#24635;&#35272;&#65306;&#20302;&#20998;&#27573;&#19981;&#36807;&#24230;&#32454;&#20998;&#65292;&#39640;&#20998;&#27573;&#26356;&#32454;</text>
<line x1="92.00" y1="813.59" x2="1302.00" y2="813.59" stroke="#ded7cc" stroke-width="1" />
<text x="78" y="818.5897435897435" class="tick" text-anchor="end" >-2</text>
<line x1="92.00" y1="787.95" x2="1302.00" y2="787.95" stroke="#ded7cc" stroke-width="1" />
<text x="78" y="792.9487179487179" class="tick" text-anchor="end" >-1</text>
<line x1="92.00" y1="762.31" x2="1302.00" y2="762.31" stroke="#ded7cc" stroke-width="1" />
<text x="78" y="767.3076923076923" class="tick" text-anchor="end" >+0</text>
<line x1="92.00" y1="736.67" x2="1302.00" y2="736.67" stroke="#ded7cc" stroke-width="1" />
<text x="78" y="741.6666666666666" class="tick" text-anchor="end" >+1</text>
<line x1="92.00" y1="723.85" x2="1302.00" y2="723.85" stroke="#ded7cc" stroke-width="1" />
<text x="78" y="728.8461538461538" class="tick" text-anchor="end" >+1.5</text>
<line x1="92.00" y1="720.00" x2="92.00" y2="820.00" stroke="#ded7cc" stroke-width="1" />
<text x="92.0" y="844" class="tick" text-anchor="middle" >0</text>
<line x1="697.00" y1="720.00" x2="697.00" y2="820.00" stroke="#ded7cc" stroke-width="1" />
<text x="697.0" y="844" class="tick" text-anchor="middle" >50w</text>
<line x1="939.00" y1="720.00" x2="939.00" y2="820.00" stroke="#ded7cc" stroke-width="1" />
<text x="939.0" y="844" class="tick" text-anchor="middle" >70w</text>
<line x1="999.50" y1="720.00" x2="999.50" y2="820.00" stroke="#ded7cc" stroke-width="1" />
<text x="999.5" y="844" class="tick" text-anchor="middle" >75w</text>
<line x1="1181.00" y1="720.00" x2="1181.00" y2="820.00" stroke="#ded7cc" stroke-width="1" />
<text x="1181.0" y="844" class="tick" text-anchor="middle" >90w</text>
<line x1="1241.50" y1="720.00" x2="1241.50" y2="820.00" stroke="#ded7cc" stroke-width="1" />
<text x="1241.5" y="844" class="tick" text-anchor="middle" >95w</text>
<line x1="1302.00" y1="720.00" x2="1302.00" y2="820.00" stroke="#ded7cc" stroke-width="1" />
<text x="1302.0" y="844" class="tick" text-anchor="middle" >100w</text>
<line x1="92.00" y1="820.00" x2="1302.00" y2="820.00" stroke="#302b27" stroke-width="2" />
<line x1="92.00" y1="720.00" x2="92.00" y2="820.00" stroke="#302b27" stroke-width="2" />
<polyline points="939.00,813.59 941.42,812.56 943.84,811.54 946.26,810.51 948.68,809.49 951.10,808.46 953.52,807.44 955.94,806.41 958.36,805.38 960.78,804.36 963.20,803.33 965.62,802.31 968.04,801.28 970.46,800.26 972.88,799.23 975.30,798.21 977.72,797.18 980.14,796.15 982.56,795.13 984.98,794.10 987.40,793.08 989.82,792.05 992.24,791.03 994.66,790.00 997.08,788.97 999.50,787.95 1001.92,787.44 1004.34,786.92 1006.76,786.41 1009.18,785.90 1011.60,785.38 1014.02,784.87 1016.44,784.36 1018.86,783.85 1021.28,783.33 1023.70,782.82 1026.12,782.31 1028.54,781.79 1030.96,781.28 1033.38,780.77 1035.80,780.26 1038.22,779.74 1040.64,779.23 1043.06,778.72 1045.48,778.21 1047.90,777.69 1050.32,777.18 1052.74,776.67 1055.16,776.15 1057.58,775.64 1060.00,775.13 1062.42,774.62 1064.84,774.10 1067.26,773.59 1069.68,773.08 1072.10,772.56 1074.52,772.05 1076.94,771.54 1079.36,771.03 1081.78,770.51 1084.20,770.00 1086.62,769.49 1089.04,768.97 1091.46,768.46 1093.88,767.95 1096.30,767.44 1098.72,766.92 1101.14,766.41 1103.56,765.90 1105.98,765.38 1108.40,764.87 1110.82,764.36 1113.24,763.85 1115.66,763.33 1118.08,762.82 1120.50,762.31 1122.92,761.79 1125.34,761.28 1127.76,760.77 1130.18,760.26 1132.60,759.74 1135.02,759.23 1137.44,758.72 1139.86,758.21 1142.28,757.69 1144.70,757.18 1147.12,756.67 1149.54,756.15 1151.96,755.64 1154.38,755.13 1156.80,754.62 1159.22,754.10 1161.64,753.59 1164.06,753.08 1166.48,752.56 1168.90,752.05 1171.32,751.54 1173.74,751.03 1176.16,750.51 1178.58,750.00 1181.00,749.49 1183.42,748.97 1185.84,748.46 1188.26,747.95 1190.68,747.44 1193.10,746.92 1195.52,746.41 1197.94,745.90 1200.36,745.38 1202.78,744.87 1205.20,744.36 1207.62,743.85 1210.04,743.33 1212.46,742.82 1214.88,742.31 1217.30,741.79 1219.72,741.28 1222.14,740.77 1224.56,740.26 1226.98,739.74 1229.40,739.23 1231.82,738.72 1234.24,738.21 1236.66,737.69 1239.08,737.18 1241.50,736.67 1243.92,736.15 1246.34,735.64 1248.76,735.13 1251.18,734.62 1253.60,734.10 1256.02,733.59 1258.44,733.08 1260.86,732.56 1263.28,732.05 1265.70,731.54 1268.12,731.03 1270.54,730.51 1272.96,730.00 1275.38,729.49 1277.80,728.97 1280.22,728.46 1282.64,727.95 1285.06,727.44 1287.48,726.92 1289.90,726.41 1292.32,725.90 1294.74,725.38 1297.16,724.87 1299.58,724.36 1302.00,723.85" fill="none" stroke="#2d719d" stroke-width="3" stroke-linecap="round" stroke-linejoin="round"/>
<rect x="939.00" y="720.00" width="363.00" height="100.00" fill="none" stroke="#c84632" stroke-width="2" stroke-dasharray="7 5"/>
<text x="92" y="882" class="small" text-anchor="start" >&#35828;&#26126;&#65306;70&#19975;&#20197;&#19979;&#19981;&#35745;&#20837;&#37324;Rating&#65307;70&#19975;&#20026;&#36807;&#20851;(-2)&#65292;75&#19975;&#20026;&#38134;&#31929;(-1)&#65292;100&#19975;/&#26497;&#23545;&#24212;&#23450;&#25968;+1.5&#12290;</text>
</svg>
