<svg xmlns="http://www.w3.org/2000/svg" width="1400" height="900" viewBox="0 0 1400 900">
<rect width="100%" height="100%" fill="#fbfaf7"/>
<style>text{font-family:'Microsoft YaHei','Segoe UI',Arial,sans-serif;fill:#25211e}.title{font-size:34px;font-weight:700}.sub{font-size:18px;fill:#6d645c}.label{font-size:18px;font-weight:650}.small{font-size:15px;fill:#6d645c}.tick{font-size:14px;fill:#6d645c}.rank{font-size:16px;font-weight:700;fill:#c84632}.mono{font-family:Consolas,'Microsoft YaHei',monospace;font-size:16px;fill:#3a332e}</style>
<text x="92" y="50" class="title" text-anchor="start" >Taiko Rating &#20998;&#25968;&#34917;&#27491;&#26354;&#32447;</text>
<text x="92" y="82" class="sub" text-anchor="start" >&#21333;&#26354; TR = &#35889;&#38754;&#23450;&#25968; + G(&#23448;&#26041;&#20998;&#25968;)</text>
<text x="92" y="108" class="small" text-anchor="start" >&#36830;&#32493;&#20998;&#27573;&#30452;&#32447;&#65306;70&#19975;&#20026;-2&#65292;70&#19975;&#20197;&#19979;&#27599;5&#19975;&#20998;&#20877;&#25187;2&#65307;80&#19975;&#37329;&#38597;&#36215;&#27599;10&#19975;&#20998;+1&#12290;</text>
<line x1="92.00" y1="579.57" x2="942.00" y2="579.57" stroke="#ded7cc" stroke-width="1" />
<text x="78" y="584.5686274509804" class="tick" text-anchor="end" >-10</text>
<line x1="92.00" y1="505.84" x2="942.00" y2="505.84" stroke="#ded7cc" stroke-width="1" />
<text x="78" y="510.843137254902" class="tick" text-anchor="end" >-8</text>
<line x1="92.00" y1="432.12" x2="942.00" y2="432.12" stroke="#ded7cc" stroke-width="1" />
<text x="78" y="437.11764705882354" class="tick" text-anchor="end" >-6</text>
<line x1="92.00" y1="358.39" x2="942.00" y2="358.39" stroke="#ded7cc" stroke-width="1" />
<text x="78" y="363.3921568627451" class="tick" text-anchor="end" >-4</text>
<line x1="92.00" y1="284.67" x2="942.00" y2="284.67" stroke="#ded7cc" stroke-width="1" />
<text x="78" y="289.6666666666667" class="tick" text-anchor="end" >-2</text>
<line x1="92.00" y1="247.80" x2="942.00" y2="247.80" stroke="#ded7cc" stroke-width="1" />
<text x="78" y="252.80392156862746" class="tick" text-anchor="end" >-1</text>
<line x1="92.00" y1="210.94" x2="942.00" y2="210.94" stroke="#ded7cc" stroke-width="1" />
<text x="78" y="215.94117647058823" class="tick" text-anchor="end" >+0</text>
<line x1="92.00" y1="174.08" x2="942.00" y2="174.08" stroke="#ded7cc" stroke-width="1" />
<text x="78" y="179.078431372549" class="tick" text-anchor="end" >+1</text>
<line x1="92.00" y1="137.22" x2="942.00" y2="137.22" stroke="#ded7cc" stroke-width="1" />
<text x="78" y="142.21568627450984" class="tick" text-anchor="end" >+2</text>
<line x1="92.00" y1="128.00" x2="92.00" y2="598.00" stroke="#c7b9a8" stroke-width="1" />
<text x="92.0" y="626" class="tick" text-anchor="middle" >50w</text>
<line x1="262.00" y1="128.00" x2="262.00" y2="598.00" stroke="#c7b9a8" stroke-width="1" />
<text x="262.0" y="626" class="tick" text-anchor="middle" >60w</text>
<line x1="347.00" y1="128.00" x2="347.00" y2="598.00" stroke="#c7b9a8" stroke-width="1" />
<text x="347.0" y="626" class="tick" text-anchor="middle" >65w</text>
<line x1="432.00" y1="128.00" x2="432.00" y2="598.00" stroke="#c7b9a8" stroke-width="1" />
<text x="432.0" y="626" class="tick" text-anchor="middle" >70w</text>
<line x1="517.00" y1="128.00" x2="517.00" y2="598.00" stroke="#c7b9a8" stroke-width="1" />
<text x="517.0" y="626" class="tick" text-anchor="middle" >75w</text>
<line x1="602.00" y1="128.00" x2="602.00" y2="598.00" stroke="#c7b9a8" stroke-width="1" />
<text x="602.0" y="626" class="tick" text-anchor="middle" >80w</text>
<line x1="772.00" y1="128.00" x2="772.00" y2="598.00" stroke="#c7b9a8" stroke-width="1" />
<text x="772.0" y="626" class="tick" text-anchor="middle" >90w</text>
<line x1="857.00" y1="128.00" x2="857.00" y2="598.00" stroke="#c7b9a8" stroke-width="1" />
<text x="857.0" y="626" class="tick" text-anchor="middle" >95w</text>
<line x1="942.00" y1="128.00" x2="942.00" y2="598.00" stroke="#c7b9a8" stroke-width="1" />
<text x="942.0" y="626" class="tick" text-anchor="middle" >100w</text>
<line x1="92.00" y1="598.00" x2="942.00" y2="598.00" stroke="#302b27" stroke-width="2" />
<line x1="92.00" y1="128.00" x2="92.00" y2="598.00" stroke="#302b27" stroke-width="2" />
<rect x="432.00" y="128.00" width="510.00" height="470.00" fill="#f0f6f8" opacity="0.8"/>
<polyline points="92.00,579.57 92.85,578.83 93.70,578.09 94.55,577.36 95.40,576.62 96.25,575.88 97.10,575.15 97.95,574.41 98.80,573.67 99.65,572.93 100.50,572.20 101.35,571.46 102.20,570.72 103.05,569.98 103.90,569.25 104.75,568.51 105.60,567.77 106.45,567.04 107.30,566.30 108.15,565.56 109.00,564.82 109.85,564.09 110.70,563.35 111.55,562.61 112.40,561.87 113.25,561.14 114.10,560.40 114.95,559.66 115.80,558.93 116.65,558.19 117.50,557.45 118.35,556.71 119.20,555.98 120.05,555.24 120.90,554.50 121.75,553.76 122.60,553.03 123.45,552.29 124.30,551.55 125.15,550.82 126.00,550.08 126.85,549.34 127.70,548.60 128.55,547.87 129.40,547.13 130.25,546.39 131.10,545.65 131.95,544.92 132.80,544.18 133.65,543.44 134.50,542.71 135.35,541.97 136.20,541.23 137.05,540.49 137.90,539.76 138.75,539.02 139.60,538.28 140.45,537.55 141.30,536.81 142.15,536.07 143.00,535.33 143.85,534.60 144.70,533.86 145.55,533.12 146.40,532.38 147.25,531.65 148.10,530.91 148.95,530.17 149.80,529.44 150.65,528.70 151.50,527.96 152.35,527.22 153.20,526.49 154.05,525.75 154.90,525.01 155.75,524.27 156.60,523.54 157.45,522.80 158.30,522.06 159.15,521.33 160.00,520.59 160.85,519.85 161.70,519.11 162.55,518.38 163.40,517.64 164.25,516.90 165.10,516.16 165.95,515.43 166.80,514.69 167.65,513.95 168.50,513.22 169.35,512.48 170.20,511.74 171.05,511.00 171.90,510.27 172.75,509.53 173.60,508.79 174.45,508.05 175.30,507.32 176.15,506.58 177.00,505.84 177.85,505.11 178.70,504.37 179.55,503.63 180.40,502.89 181.25,502.16 182.10,501.42 182.95,500.68 183.80,499.95 184.65,499.21 185.50,498.47 186.35,497.73 187.20,497.00 188.05,496.26 188.90,495.52 189.75,494.78 190.60,494.05 191.45,493.31 192.30,492.57 193.15,491.84 194.00,491.10 194.85,490.36 195.70,489.62 196.55,488.89 197.40,488.15 198.25,487.41 199.10,486.67 199.95,485.94 200.80,485.20 201.65,484.46 202.50,483.73 203.35,482.99 204.20,482.25 205.05,481.51 205.90,480.78 206.75,480.04 207.60,479.30 208.45,478.56 209.30,477.83 210.15,477.09 211.00,476.35 211.85,475.62 212.70,474.88 213.55,474.14 214.40,473.40 215.25,472.67 216.10,471.93 216.95,471.19 217.80,470.45 218.65,469.72 219.50,468.98 220.35,468.24 221.20,467.51 222.05,466.77 222.90,466.03 223.75,465.29 224.60,464.56 225.45,463.82 226.30,463.08 227.15,462.35 228.00,461.61 228.85,460.87 229.70,460.13 230.55,459.40 231.40,458.66 232.25,457.92 233.10,457.18 233.95,456.45 234.80,455.71 235.65,454.97 236.50,454.24 237.35,453.50 238.20,452.76 239.05,452.02 239.90,451.29 240.75,450.55 241.60,449.81 242.45,449.07 243.30,448.34 244.15,447.60 245.00,446.86 245.85,446.13 246.70,445.39 247.55,444.65 248.40,443.91 249.25,443.18 250.10,442.44 250.95,441.70 251.80,440.96 252.65,440.23 253.50,439.49 254.35,438.75 255.20,438.02 256.05,437.28 256.90,436.54 257.75,435.80 258.60,435.07 259.45,434.33 260.30,433.59 261.15,432.85 262.00,432.12 262.85,431.38 263.70,430.64 264.55,429.91 265.40,429.17 266.25,428.43 267.10,427.69 267.95,426.96 268.80,426.22 269.65,425.48 270.50,424.75 271.35,424.01 272.20,423.27 273.05,422.53 273.90,421.80 274.75,421.06 275.60,420.32 276.45,419.58 277.30,418.85 278.15,418.11 279.00,417.37 279.85,416.64 280.70,415.90 281.55,415.16 282.40,414.42 283.25,413.69 284.10,412.95 284.95,412.21 285.80,411.47 286.65,410.74 287.50,410.00 288.35,409.26 289.20,408.53 290.05,407.79 290.90,407.05 291.75,406.31 292.60,405.58 293.45,404.84 294.30,404.10 295.15,403.36 296.00,402.63 296.85,401.89 297.70,401.15 298.55,400.42 299.40,399.68 300.25,398.94 301.10,398.20 301.95,397.47 302.80,396.73 303.65,395.99 304.50,395.25 305.35,394.52 306.20,393.78 307.05,393.04 307.90,392.31 308.75,391.57 309.60,390.83 310.45,390.09 311.30,389.36 312.15,388.62 313.00,387.88 313.85,387.15 314.70,386.41 315.55,385.67 316.40,384.93 317.25,384.20 318.10,383.46 318.95,382.72 319.80,381.98 320.65,381.25 321.50,380.51 322.35,379.77 323.20,379.04 324.05,378.30 324.90,377.56 325.75,376.82 326.60,376.09 327.45,375.35 328.30,374.61 329.15,373.87 330.00,373.14 330.85,372.40 331.70,371.66 332.55,370.93 333.40,370.19 334.25,369.45 335.10,368.71 335.95,367.98 336.80,367.24 337.65,366.50 338.50,365.76 339.35,365.03 340.20,364.29 341.05,363.55 341.90,362.82 342.75,362.08 343.60,361.34 344.45,360.60 345.30,359.87 346.15,359.13 347.00,358.39 347.85,357.65 348.70,356.92 349.55,356.18 350.40,355.44 351.25,354.71 352.10,353.97 352.95,353.23 353.80,352.49 354.65,351.76 355.50,351.02 356.35,350.28 357.20,349.55 358.05,348.81 358.90,348.07 359.75,347.33 360.60,346.60 361.45,345.86 362.30,345.12 363.15,344.38 364.00,343.65 364.85,342.91 365.70,342.17 366.55,341.44 367.40,340.70 368.25,339.96 369.10,339.22 369.95,338.49 370.80,337.75 371.65,337.01 372.50,336.27 373.35,335.54 374.20,334.80 375.05,334.06 375.90,333.33 376.75,332.59 377.60,331.85 378.45,331.11 379.30,330.38 380.15,329.64 381.00,328.90 381.85,328.16 382.70,327.43 383.55,326.69 384.40,325.95 385.25,325.22 386.10,324.48 386.95,323.74 387.80,323.00 388.65,322.27 389.50,321.53 390.35,320.79 391.20,320.05 392.05,319.32 392.90,318.58 393.75,317.84 394.60,317.11 395.45,316.37 396.30,315.63 397.15,314.89 398.00,314.16 398.85,313.42 399.70,312.68 400.55,311.95 401.40,311.21 402.25,310.47 403.10,309.73 403.95,309.00 404.80,308.26 405.65,307.52 406.50,306.78 407.35,306.05 408.20,305.31 409.05,304.57 409.90,303.84 410.75,303.10 411.60,302.36 412.45,301.62 413.30,300.89 414.15,300.15 415.00,299.41 415.85,298.67 416.70,297.94 417.55,297.20 418.40,296.46 419.25,295.73 420.10,294.99 420.95,294.25 421.80,293.51 422.65,292.78 423.50,292.04 424.35,291.30 425.20,290.56 426.05,289.83 426.90,289.09 427.75,288.35 428.60,287.62 429.45,286.88 430.30,286.14 431.15,285.40 432.00,284.67 432.85,284.30 433.70,283.93 434.55,283.56 435.40,283.19 436.25,282.82 437.10,282.45 437.95,282.09 438.80,281.72 439.65,281.35 440.50,280.98 441.35,280.61 442.20,280.24 443.05,279.87 443.90,279.51 444.75,279.14 445.60,278.77 446.45,278.40 447.30,278.03 448.15,277.66 449.00,277.29 449.85,276.93 450.70,276.56 451.55,276.19 452.40,275.82 453.25,275.45 454.10,275.08 454.95,274.71 455.80,274.35 456.65,273.98 457.50,273.61 458.35,273.24 459.20,272.87 460.05,272.50 460.90,272.13 461.75,271.76 462.60,271.40 463.45,271.03 464.30,270.66 465.15,270.29 466.00,269.92 466.85,269.55 467.70,269.18 468.55,268.82 469.40,268.45 470.25,268.08 471.10,267.71 471.95,267.34 472.80,266.97 473.65,266.60 474.50,266.24 475.35,265.87 476.20,265.50 477.05,265.13 477.90,264.76 478.75,264.39 479.60,264.02 480.45,263.65 481.30,263.29 482.15,262.92 483.00,262.55 483.85,262.18 484.70,261.81 485.55,261.44 486.40,261.07 487.25,260.71 488.10,260.34 488.95,259.97 489.80,259.60 490.65,259.23 491.50,258.86 492.35,258.49 493.20,258.13 494.05,257.76 494.90,257.39 495.75,257.02 496.60,256.65 497.45,256.28 498.30,255.91 499.15,255.55 500.00,255.18 500.85,254.81 501.70,254.44 502.55,254.07 503.40,253.70 504.25,253.33 505.10,252.96 505.95,252.60 506.80,252.23 507.65,251.86 508.50,251.49 509.35,251.12 510.20,250.75 511.05,250.38 511.90,250.02 512.75,249.65 513.60,249.28 514.45,248.91 515.30,248.54 516.15,248.17 517.00,247.80 517.85,247.44 518.70,247.07 519.55,246.70 520.40,246.33 521.25,245.96 522.10,245.59 522.95,245.22 523.80,244.85 524.65,244.49 525.50,244.12 526.35,243.75 527.20,243.38 528.05,243.01 528.90,242.64 529.75,242.27 530.60,241.91 531.45,241.54 532.30,241.17 533.15,240.80 534.00,240.43 534.85,240.06 535.70,239.69 536.55,239.33 537.40,238.96 538.25,238.59 539.10,238.22 539.95,237.85 540.80,237.48 541.65,237.11 542.50,236.75 543.35,236.38 544.20,236.01 545.05,235.64 545.90,235.27 546.75,234.90 547.60,234.53 548.45,234.16 549.30,233.80 550.15,233.43 551.00,233.06 551.85,232.69 552.70,232.32 553.55,231.95 554.40,231.58 555.25,231.22 556.10,230.85 556.95,230.48 557.80,230.11 558.65,229.74 559.50,229.37 560.35,229.00 561.20,228.64 562.05,228.27 562.90,227.90 563.75,227.53 564.60,227.16 565.45,226.79 566.30,226.42 567.15,226.05 568.00,225.69 568.85,225.32 569.70,224.95 570.55,224.58 571.40,224.21 572.25,223.84 573.10,223.47 573.95,223.11 574.80,222.74 575.65,222.37 576.50,222.00 577.35,221.63 578.20,221.26 579.05,220.89 579.90,220.53 580.75,220.16 581.60,219.79 582.45,219.42 583.30,219.05 584.15,218.68 585.00,218.31 585.85,217.95 586.70,217.58 587.55,217.21 588.40,216.84 589.25,216.47 590.10,216.10 590.95,215.73 591.80,215.36 592.65,215.00 593.50,214.63 594.35,214.26 595.20,213.89 596.05,213.52 596.90,213.15 597.75,212.78 598.60,212.42 599.45,212.05 600.30,211.68 601.15,211.31 602.00,210.94 602.85,210.76 603.70,210.57 604.55,210.39 605.40,210.20 606.25,210.02 607.10,209.84 607.95,209.65 608.80,209.47 609.65,209.28 610.50,209.10 611.35,208.91 612.20,208.73 613.05,208.55 613.90,208.36 614.75,208.18 615.60,207.99 616.45,207.81 617.30,207.62 618.15,207.44 619.00,207.25 619.85,207.07 620.70,206.89 621.55,206.70 622.40,206.52 623.25,206.33 624.10,206.15 624.95,205.96 625.80,205.78 626.65,205.60 627.50,205.41 628.35,205.23 629.20,205.04 630.05,204.86 630.90,204.67 631.75,204.49 632.60,204.31 633.45,204.12 634.30,203.94 635.15,203.75 636.00,203.57 636.85,203.38 637.70,203.20 638.55,203.02 639.40,202.83 640.25,202.65 641.10,202.46 641.95,202.28 642.80,202.09 643.65,201.91 644.50,201.73 645.35,201.54 646.20,201.36 647.05,201.17 647.90,200.99 648.75,200.80 649.60,200.62 650.45,200.44 651.30,200.25 652.15,200.07 653.00,199.88 653.85,199.70 654.70,199.51 655.55,199.33 656.40,199.15 657.25,198.96 658.10,198.78 658.95,198.59 659.80,198.41 660.65,198.22 661.50,198.04 662.35,197.85 663.20,197.67 664.05,197.49 664.90,197.30 665.75,197.12 666.60,196.93 667.45,196.75 668.30,196.56 669.15,196.38 670.00,196.20 670.85,196.01 671.70,195.83 672.55,195.64 673.40,195.46 674.25,195.27 675.10,195.09 675.95,194.91 676.80,194.72 677.65,194.54 678.50,194.35 679.35,194.17 680.20,193.98 681.05,193.80 681.90,193.62 682.75,193.43 683.60,193.25 684.45,193.06 685.30,192.88 686.15,192.69 687.00,192.51 687.85,192.33 688.70,192.14 689.55,191.96 690.40,191.77 691.25,191.59 692.10,191.40 692.95,191.22 693.80,191.04 694.65,190.85 695.50,190.67 696.35,190.48 697.20,190.30 698.05,190.11 698.90,189.93 699.75,189.75 700.60,189.56 701.45,189.38 702.30,189.19 703.15,189.01 704.00,188.82 704.85,188.64 705.70,188.45 706.55,188.27 707.40,188.09 708.25,187.90 709.10,187.72 709.95,187.53 710.80,187.35 711.65,187.16 712.50,186.98 713.35,186.80 714.20,186.61 715.05,186.43 715.90,186.24 716.75,186.06 717.60,185.87 718.45,185.69 719.30,185.51 720.15,185.32 721.00,185.14 721.85,184.95 722.70,184.77 723.55,184.58 724.40,184.40 725.25,184.22 726.10,184.03 726.95,183.85 727.80,183.66 728.65,183.48 729.50,183.29 730.35,183.11 731.20,182.93 732.05,182.74 732.90,182.56 733.75,182.37 734.60,182.19 735.45,182.00 736.30,181.82 737.15,181.64 738.00,181.45 738.85,181.27 739.70,181.08 740.55,180.90 741.40,180.71 742.25,180.53 743.10,180.35 743.95,180.16 744.80,179.98 745.65,179.79 746.50,179.61 747.35,179.42 748.20,179.24 749.05,179.05 749.90,178.87 750.75,178.69 751.60,178.50 752.45,178.32 753.30,178.13 754.15,177.95 755.00,177.76 755.85,177.58 756.70,177.40 757.55,177.21 758.40,177.03 759.25,176.84 760.10,176.66 760.95,176.47 761.80,176.29 762.65,176.11 763.50,175.92 764.35,175.74 765.20,175.55 766.05,175.37 766.90,175.18 767.75,175.00 768.60,174.82 769.45,174.63 770.30,174.45 771.15,174.26 772.00,174.08 772.85,173.89 773.70,173.71 774.55,173.53 775.40,173.34 776.25,173.16 777.10,172.97 777.95,172.79 778.80,172.60 779.65,172.42 780.50,172.24 781.35,172.05 782.20,171.87 783.05,171.68 783.90,171.50 784.75,171.31 785.60,171.13 786.45,170.95 787.30,170.76 788.15,170.58 789.00,170.39 789.85,170.21 790.70,170.02 791.55,169.84 792.40,169.65 793.25,169.47 794.10,169.29 794.95,169.10 795.80,168.92 796.65,168.73 797.50,168.55 798.35,168.36 799.20,168.18 800.05,168.00 800.90,167.81 801.75,167.63 802.60,167.44 803.45,167.26 804.30,167.07 805.15,166.89 806.00,166.71 806.85,166.52 807.70,166.34 808.55,166.15 809.40,165.97 810.25,165.78 811.10,165.60 811.95,165.42 812.80,165.23 813.65,165.05 814.50,164.86 815.35,164.68 816.20,164.49 817.05,164.31 817.90,164.13 818.75,163.94 819.60,163.76 820.45,163.57 821.30,163.39 822.15,163.20 823.00,163.02 823.85,162.84 824.70,162.65 825.55,162.47 826.40,162.28 827.25,162.10 828.10,161.91 828.95,161.73 829.80,161.55 830.65,161.36 831.50,161.18 832.35,160.99 833.20,160.81 834.05,160.62 834.90,160.44 835.75,160.25 836.60,160.07 837.45,159.89 838.30,159.70 839.15,159.52 840.00,159.33 840.85,159.15 841.70,158.96 842.55,158.78 843.40,158.60 844.25,158.41 845.10,158.23 845.95,158.04 846.80,157.86 847.65,157.67 848.50,157.49 849.35,157.31 850.20,157.12 851.05,156.94 851.90,156.75 852.75,156.57 853.60,156.38 854.45,156.20 855.30,156.02 856.15,155.83 857.00,155.65 857.85,155.46 858.70,155.28 859.55,155.09 860.40,154.91 861.25,154.73 862.10,154.54 862.95,154.36 863.80,154.17 864.65,153.99 865.50,153.80 866.35,153.62 867.20,153.44 868.05,153.25 868.90,153.07 869.75,152.88 870.60,152.70 871.45,152.51 872.30,152.33 873.15,152.15 874.00,151.96 874.85,151.78 875.70,151.59 876.55,151.41 877.40,151.22 878.25,151.04 879.10,150.85 879.95,150.67 880.80,150.49 881.65,150.30 882.50,150.12 883.35,149.93 884.20,149.75 885.05,149.56 885.90,149.38 886.75,149.20 887.60,149.01 888.45,148.83 889.30,148.64 890.15,148.46 891.00,148.27 891.85,148.09 892.70,147.91 893.55,147.72 894.40,147.54 895.25,147.35 896.10,147.17 896.95,146.98 897.80,146.80 898.65,146.62 899.50,146.43 900.35,146.25 901.20,146.06 902.05,145.88 902.90,145.69 903.75,145.51 904.60,145.33 905.45,145.14 906.30,144.96 907.15,144.77 908.00,144.59 908.85,144.40 909.70,144.22 910.55,144.04 911.40,143.85 912.25,143.67 913.10,143.48 913.95,143.30 914.80,143.11 915.65,142.93 916.50,142.75 917.35,142.56 918.20,142.38 919.05,142.19 919.90,142.01 920.75,141.82 921.60,141.64 922.45,141.45 923.30,141.27 924.15,141.09 925.00,140.90 925.85,140.72 926.70,140.53 927.55,140.35 928.40,140.16 929.25,139.98 930.10,139.80 930.95,139.61 931.80,139.43 932.65,139.24 933.50,139.06 934.35,138.87 935.20,138.69 936.05,138.51 936.90,138.32 937.75,138.14 938.60,137.95 939.45,137.77 940.30,137.58 941.15,137.40 942.00,137.22" fill="none" stroke="#c84632" stroke-width="4" stroke-linecap="round" stroke-linejoin="round"/>
<text x="517.0" y="662" class="label" text-anchor="middle" >&#23448;&#26041;&#20998;&#25968; Score</text>
<text x="34" y="363.0" class="label" text-anchor="middle" transform="rotate(-90 34 363.0)">G(&#20998;&#25968;) = &#21333;&#26354;TR - &#23450;&#25968;</text>
<circle cx="432.00" cy="284.67" r="5" fill="#c84632"/>
<text x="432.0" y="268.6666666666667" class="rank" text-anchor="middle" >过关 / 70w</text>
<circle cx="517.00" cy="247.80" r="5" fill="#c84632"/>
<text x="517.0" y="231.80392156862746" class="rank" text-anchor="middle" >银粹 / 75w</text>
<circle cx="602.00" cy="210.94" r="5" fill="#c84632"/>
<text x="602.0" y="194.94117647058823" class="rank" text-anchor="middle" >金雅 / 80w</text>
<circle cx="772.00" cy="174.08" r="5" fill="#c84632"/>
<text x="772.0" y="158.078431372549" class="rank" text-anchor="middle" >粉雅 / 90w</text>
<circle cx="857.00" cy="155.65" r="5" fill="#c84632"/>
<text x="857.0" y="139.6470588235294" class="rank" text-anchor="middle" >紫雅 / 95w</text>
<circle cx="942.00" cy="137.22" r="5" fill="#c84632"/>
<text x="942.0" y="121.21568627450984" class="rank" text-anchor="middle" >极 / 100w</text>
<rect x="990" y="155" width="325" height="310" rx="8" fill="#fff8ea" stroke="#d6bd8e"/>
<text x="1008" y="187" class="label" text-anchor="start" >&#20363;&#65306;&#23450;&#25968; 10.5</text>
<text x="1008" y="219" class="mono" text-anchor="start" > 50w  ->  0.50</text>
<text x="1008" y="243" class="mono" text-anchor="start" > 60w  ->  4.50</text>
<text x="1008" y="267" class="mono" text-anchor="start" > 65w  ->  6.50</text>
<text x="1008" y="291" class="mono" text-anchor="start" > 70w  ->  8.50</text>
<text x="1008" y="315" class="mono" text-anchor="start" > 75w  ->  9.50</text>
<text x="1008" y="339" class="mono" text-anchor="start" > 80w  ->  10.50</text>
<text x="1008" y="363" class="mono" text-anchor="start" > 90w  ->  11.50</text>
<text x="1008" y="387" class="mono" text-anchor="start" > 95w  ->  12.00</text>
<text x="1008" y="411" class="mono" text-anchor="start" >100w  ->  12.50</text>
<text x="92" y="684" class="label" text-anchor="start" >0 - 100&#19975; &#24635;&#35272;&#65306;&#20302;&#20998;&#27573;&#32487;&#32493;&#32447;&#24615;&#25187;&#20998;&#65292;&#37329;&#38597;&#20197;&#19978;&#27599;10w +1</text>
<line x1="92.00" y1="818.47" x2="1302.00" y2="818.47" stroke="#ded7cc" stroke-width="1" />
<text x="78" y="823.4732824427481" class="tick" text-anchor="end" >-30</text>
<line x1="92.00" y1="787.94" x2="1302.00" y2="787.94" stroke="#ded7cc" stroke-width="1" />
<text x="78" y="792.9389312977099" class="tick" text-anchor="end" >-20</text>
<line x1="92.00" y1="757.40" x2="1302.00" y2="757.40" stroke="#ded7cc" stroke-width="1" />
<text x="78" y="762.4045801526718" class="tick" text-anchor="end" >-10</text>
<line x1="92.00" y1="732.98" x2="1302.00" y2="732.98" stroke="#ded7cc" stroke-width="1" />
<text x="78" y="737.9770992366413" class="tick" text-anchor="end" >-2</text>
<line x1="92.00" y1="726.87" x2="1302.00" y2="726.87" stroke="#ded7cc" stroke-width="1" />
<text x="78" y="731.8702290076336" class="tick" text-anchor="end" >+0</text>
<line x1="92.00" y1="720.76" x2="1302.00" y2="720.76" stroke="#ded7cc" stroke-width="1" />
<text x="78" y="725.763358778626" class="tick" text-anchor="end" >+2</text>
<line x1="92.00" y1="720.00" x2="92.00" y2="820.00" stroke="#ded7cc" stroke-width="1" />
<text x="92.0" y="844" class="tick" text-anchor="middle" >0</text>
<line x1="697.00" y1="720.00" x2="697.00" y2="820.00" stroke="#ded7cc" stroke-width="1" />
<text x="697.0" y="844" class="tick" text-anchor="middle" >50w</text>
<line x1="939.00" y1="720.00" x2="939.00" y2="820.00" stroke="#ded7cc" stroke-width="1" />
<text x="939.0" y="844" class="tick" text-anchor="middle" >70w</text>
<line x1="999.50" y1="720.00" x2="999.50" y2="820.00" stroke="#ded7cc" stroke-width="1" />
<text x="999.5" y="844" class="tick" text-anchor="middle" >75w</text>
<line x1="1060.00" y1="720.00" x2="1060.00" y2="820.00" stroke="#ded7cc" stroke-width="1" />
<text x="1060.0" y="844" class="tick" text-anchor="middle" >80w</text>
<line x1="1181.00" y1="720.00" x2="1181.00" y2="820.00" stroke="#ded7cc" stroke-width="1" />
<text x="1181.0" y="844" class="tick" text-anchor="middle" >90w</text>
<line x1="1241.50" y1="720.00" x2="1241.50" y2="820.00" stroke="#ded7cc" stroke-width="1" />
<text x="1241.5" y="844" class="tick" text-anchor="middle" >95w</text>
<line x1="1302.00" y1="720.00" x2="1302.00" y2="820.00" stroke="#ded7cc" stroke-width="1" />
<text x="1302.0" y="844" class="tick" text-anchor="middle" >100w</text>
<line x1="92.00" y1="820.00" x2="1302.00" y2="820.00" stroke="#302b27" stroke-width="2" />
<line x1="92.00" y1="720.00" x2="92.00" y2="820.00" stroke="#302b27" stroke-width="2" />
<polyline points="92.00,818.47 94.42,818.23 96.84,817.98 99.26,817.74 101.68,817.50 104.10,817.25 106.52,817.01 108.94,816.76 111.36,816.52 113.78,816.27 116.20,816.03 118.62,815.79 121.04,815.54 123.46,815.30 125.88,815.05 128.30,814.81 130.72,814.56 133.14,814.32 135.56,814.08 137.98,813.83 140.40,813.59 142.82,813.34 145.24,813.10 147.66,812.85 150.08,812.61 152.50,812.37 154.92,812.12 157.34,811.88 159.76,811.63 162.18,811.39 164.60,811.15 167.02,810.90 169.44,810.66 171.86,810.41 174.28,810.17 176.70,809.92 179.12,809.68 181.54,809.44 183.96,809.19 186.38,808.95 188.80,808.70 191.22,808.46 193.64,808.21 196.06,807.97 198.48,807.73 200.90,807.48 203.32,807.24 205.74,806.99 208.16,806.75 210.58,806.50 213.00,806.26 215.42,806.02 217.84,805.77 220.26,805.53 222.68,805.28 225.10,805.04 227.52,804.79 229.94,804.55 232.36,804.31 234.78,804.06 237.20,803.82 239.62,803.57 242.04,803.33 244.46,803.08 246.88,802.84 249.30,802.60 251.72,802.35 254.14,802.11 256.56,801.86 258.98,801.62 261.40,801.37 263.82,801.13 266.24,800.89 268.66,800.64 271.08,800.40 273.50,800.15 275.92,799.91 278.34,799.66 280.76,799.42 283.18,799.18 285.60,798.93 288.02,798.69 290.44,798.44 292.86,798.20 295.28,797.95 297.70,797.71 300.12,797.47 302.54,797.22 304.96,796.98 307.38,796.73 309.80,796.49 312.22,796.24 314.64,796.00 317.06,795.76 319.48,795.51 321.90,795.27 324.32,795.02 326.74,794.78 329.16,794.53 331.58,794.29 334.00,794.05 336.42,793.80 338.84,793.56 341.26,793.31 343.68,793.07 346.10,792.82 348.52,792.58 350.94,792.34 353.36,792.09 355.78,791.85 358.20,791.60 360.62,791.36 363.04,791.11 365.46,790.87 367.88,790.63 370.30,790.38 372.72,790.14 375.14,789.89 377.56,789.65 379.98,789.40 382.40,789.16 384.82,788.92 387.24,788.67 389.66,788.43 392.08,788.18 394.50,787.94 396.92,787.69 399.34,787.45 401.76,787.21 404.18,786.96 406.60,786.72 409.02,786.47 411.44,786.23 413.86,785.98 416.28,785.74 418.70,785.50 421.12,785.25 423.54,785.01 425.96,784.76 428.38,784.52 430.80,784.27 433.22,784.03 435.64,783.79 438.06,783.54 440.48,783.30 442.90,783.05 445.32,782.81 447.74,782.56 450.16,782.32 452.58,782.08 455.00,781.83 457.42,781.59 459.84,781.34 462.26,781.10 464.68,780.85 467.10,780.61 469.52,780.37 471.94,780.12 474.36,779.88 476.78,779.63 479.20,779.39 481.62,779.15 484.04,778.90 486.46,778.66 488.88,778.41 491.30,778.17 493.72,777.92 496.14,777.68 498.56,777.44 500.98,777.19 503.40,776.95 505.82,776.70 508.24,776.46 510.66,776.21 513.08,775.97 515.50,775.73 517.92,775.48 520.34,775.24 522.76,774.99 525.18,774.75 527.60,774.50 530.02,774.26 532.44,774.02 534.86,773.77 537.28,773.53 539.70,773.28 542.12,773.04 544.54,772.79 546.96,772.55 549.38,772.31 551.80,772.06 554.22,771.82 556.64,771.57 559.06,771.33 561.48,771.08 563.90,770.84 566.32,770.60 568.74,770.35 571.16,770.11 573.58,769.86 576.00,769.62 578.42,769.37 580.84,769.13 583.26,768.89 585.68,768.64 588.10,768.40 590.52,768.15 592.94,767.91 595.36,767.66 597.78,767.42 600.20,767.18 602.62,766.93 605.04,766.69 607.46,766.44 609.88,766.20 612.30,765.95 614.72,765.71 617.14,765.47 619.56,765.22 621.98,764.98 624.40,764.73 626.82,764.49 629.24,764.24 631.66,764.00 634.08,763.76 636.50,763.51 638.92,763.27 641.34,763.02 643.76,762.78 646.18,762.53 648.60,762.29 651.02,762.05 653.44,761.80 655.86,761.56 658.28,761.31 660.70,761.07 663.12,760.82 665.54,760.58 667.96,760.34 670.38,760.09 672.80,759.85 675.22,759.60 677.64,759.36 680.06,759.11 682.48,758.87 684.90,758.63 687.32,758.38 689.74,758.14 692.16,757.89 694.58,757.65 697.00,757.40 699.42,757.16 701.84,756.92 704.26,756.67 706.68,756.43 709.10,756.18 711.52,755.94 713.94,755.69 716.36,755.45 718.78,755.21 721.20,754.96 723.62,754.72 726.04,754.47 728.46,754.23 730.88,753.98 733.30,753.74 735.72,753.50 738.14,753.25 740.56,753.01 742.98,752.76 745.40,752.52 747.82,752.27 750.24,752.03 752.66,751.79 755.08,751.54 757.50,751.30 759.92,751.05 762.34,750.81 764.76,750.56 767.18,750.32 769.60,750.08 772.02,749.83 774.44,749.59 776.86,749.34 779.28,749.10 781.70,748.85 784.12,748.61 786.54,748.37 788.96,748.12 791.38,747.88 793.80,747.63 796.22,747.39 798.64,747.15 801.06,746.90 803.48,746.66 805.90,746.41 808.32,746.17 810.74,745.92 813.16,745.68 815.58,745.44 818.00,745.19 820.42,744.95 822.84,744.70 825.26,744.46 827.68,744.21 830.10,743.97 832.52,743.73 834.94,743.48 837.36,743.24 839.78,742.99 842.20,742.75 844.62,742.50 847.04,742.26 849.46,742.02 851.88,741.77 854.30,741.53 856.72,741.28 859.14,741.04 861.56,740.79 863.98,740.55 866.40,740.31 868.82,740.06 871.24,739.82 873.66,739.57 876.08,739.33 878.50,739.08 880.92,738.84 883.34,738.60 885.76,738.35 888.18,738.11 890.60,737.86 893.02,737.62 895.44,737.37 897.86,737.13 900.28,736.89 902.70,736.64 905.12,736.40 907.54,736.15 909.96,735.91 912.38,735.66 914.80,735.42 917.22,735.18 919.64,734.93 922.06,734.69 924.48,734.44 926.90,734.20 929.32,733.95 931.74,733.71 934.16,733.47 936.58,733.22 939.00,732.98 941.42,732.85 943.84,732.73 946.26,732.61 948.68,732.49 951.10,732.37 953.52,732.24 955.94,732.12 958.36,732.00 960.78,731.88 963.20,731.76 965.62,731.63 968.04,731.51 970.46,731.39 972.88,731.27 975.30,731.15 977.72,731.02 980.14,730.90 982.56,730.78 984.98,730.66 987.40,730.53 989.82,730.41 992.24,730.29 994.66,730.17 997.08,730.05 999.50,729.92 1001.92,729.80 1004.34,729.68 1006.76,729.56 1009.18,729.44 1011.60,729.31 1014.02,729.19 1016.44,729.07 1018.86,728.95 1021.28,728.82 1023.70,728.70 1026.12,728.58 1028.54,728.46 1030.96,728.34 1033.38,728.21 1035.80,728.09 1038.22,727.97 1040.64,727.85 1043.06,727.73 1045.48,727.60 1047.90,727.48 1050.32,727.36 1052.74,727.24 1055.16,727.11 1057.58,726.99 1060.00,726.87 1062.42,726.81 1064.84,726.75 1067.26,726.69 1069.68,726.63 1072.10,726.56 1074.52,726.50 1076.94,726.44 1079.36,726.38 1081.78,726.32 1084.20,726.26 1086.62,726.20 1089.04,726.14 1091.46,726.08 1093.88,726.02 1096.30,725.95 1098.72,725.89 1101.14,725.83 1103.56,725.77 1105.98,725.71 1108.40,725.65 1110.82,725.59 1113.24,725.53 1115.66,725.47 1118.08,725.40 1120.50,725.34 1122.92,725.28 1125.34,725.22 1127.76,725.16 1130.18,725.10 1132.60,725.04 1135.02,724.98 1137.44,724.92 1139.86,724.85 1142.28,724.79 1144.70,724.73 1147.12,724.67 1149.54,724.61 1151.96,724.55 1154.38,724.49 1156.80,724.43 1159.22,724.37 1161.64,724.31 1164.06,724.24 1166.48,724.18 1168.90,724.12 1171.32,724.06 1173.74,724.00 1176.16,723.94 1178.58,723.88 1181.00,723.82 1183.42,723.76 1185.84,723.69 1188.26,723.63 1190.68,723.57 1193.10,723.51 1195.52,723.45 1197.94,723.39 1200.36,723.33 1202.78,723.27 1205.20,723.21 1207.62,723.15 1210.04,723.08 1212.46,723.02 1214.88,722.96 1217.30,722.90 1219.72,722.84 1222.14,722.78 1224.56,722.72 1226.98,722.66 1229.40,722.60 1231.82,722.53 1234.24,722.47 1236.66,722.41 1239.08,722.35 1241.50,722.29 1243.92,722.23 1246.34,722.17 1248.76,722.11 1251.18,722.05 1253.60,721.98 1256.02,721.92 1258.44,721.86 1260.86,721.80 1263.28,721.74 1265.70,721.68 1268.12,721.62 1270.54,721.56 1272.96,721.50 1275.38,721.44 1277.80,721.37 1280.22,721.31 1282.64,721.25 1285.06,721.19 1287.48,721.13 1289.90,721.07 1292.32,721.01 1294.74,720.95 1297.16,720.89 1299.58,720.82 1302.00,720.76" fill="none" stroke="#2d719d" stroke-width="3" stroke-linecap="round" stroke-linejoin="round"/>
<rect x="939.00" y="720.00" width="363.00" height="100.00" fill="none" stroke="#c84632" stroke-width="2" stroke-dasharray="7 5"/>
<text x="92" y="882" class="small" text-anchor="start" >&#35828;&#26126;&#65306;&#20302;&#20110;70&#19975;&#19981;&#20877;&#28165;&#38646;&#65307;50w=-10&#65292;60w=-6&#65292;65w=-4&#65292;70w=-2&#65292;80w=+0&#65292;90w=+1&#65292;100w=+2&#12290;</text>
</svg>
